<svg xmlns="http://www.w3.org/2000/svg" viewBox="80 110 860 580" width="860" height="580">
<ellipse cx="512" cy="648" rx="200" ry="22" fill="#e9a9b9" opacity="0.35"/>
  <!-- 大脑小人 -->
  <g stroke="#6d5760" stroke-width="14" stroke-linejoin="round" stroke-linecap="round">
    <!-- 小脚 -->
    <ellipse cx="440" cy="628" rx="38" ry="24" fill="#f7a8bd"/>
    <ellipse cx="584" cy="628" rx="38" ry="24" fill="#f7a8bd"/>
    <!-- 脑袋 -->
    <path fill="#ffc6d5" d="M512 170
      C560 138 632 146 668 188 C724 180 778 226 776 290 C822 322 836 390 804 440
      C822 500 784 566 720 574 C690 620 620 632 580 604 C552 622 472 622 444 604
      C404 632 334 620 304 574 C240 566 202 500 220 440 C188 390 202 322 248 290
      C246 226 300 180 356 188 C392 146 464 138 512 170 Z"/>
    <!-- 中间的脑沟与褶皱 -->
    <path fill="none" stroke-width="11" d="M512 176 C500 214 526 236 512 270"/>
    <path fill="none" stroke-width="11" d="M372 214 C396 232 386 262 410 276 M650 214 C626 232 636 262 612 276"/>
    <path fill="none" stroke-width="11" d="M262 330 C292 338 300 362 290 384 M762 330 C732 338 724 362 734 384"/>
  </g>
  <!-- 左手（挥手） -->
  <g stroke="#6d5760" stroke-width="14" stroke-linecap="round">
    <path d="M232 470 C196 452 176 420 172 388" fill="none"/>
    <circle cx="170" cy="376" r="24" fill="#ffc6d5"/>
  </g>
  <g fill="none" stroke="#6d5760" stroke-width="8" stroke-linecap="round" opacity="0.7">
    <path d="M122 356 Q112 376 122 396 M100 342 Q84 376 100 410"/>
  </g>
  <!-- 脸 -->
  <g>
    <ellipse cx="430" cy="420" rx="30" ry="40" fill="#6d5760"/>
    <ellipse cx="594" cy="420" rx="30" ry="40" fill="#6d5760"/>
    <circle cx="420" cy="404" r="11" fill="#fff"/><circle cx="584" cy="404" r="11" fill="#fff"/>
    <circle cx="440" cy="436" r="5" fill="#fff"/><circle cx="604" cy="436" r="5" fill="#fff"/>
    <ellipse cx="372" cy="478" rx="36" ry="20" fill="#ff8fab" opacity="0.55"/>
    <ellipse cx="652" cy="478" rx="36" ry="20" fill="#ff8fab" opacity="0.55"/>
    <path d="M484 470 Q512 500 540 470" fill="none" stroke="#6d5760" stroke-width="12" stroke-linecap="round"/>
  </g>

  <!-- 右手抱着胶囊 -->
  <g transform="translate(772 470) rotate(-32)" stroke="#6d5760" stroke-width="14" stroke-linejoin="round">
    <path d="M-70 -44 L0 -44 L0 44 L-70 44 A44 44 0 0 1 -70 -44 Z" fill="#ff8fab"/>
    <path d="M0 -44 L70 -44 A44 44 0 0 1 70 44 L0 44 Z" fill="#fff"/>
    <path d="M-80 -22 L-40 -22" stroke="#fff" stroke-width="10" stroke-linecap="round" opacity="0.8"/>
  </g>
  <circle cx="752" cy="520" r="24" fill="#ffc6d5" stroke="#6d5760" stroke-width="14"/>

  <!-- 闪光 -->
  <g fill="#ffd66b" stroke="#6d5760" stroke-width="8" stroke-linejoin="round">
    <path d="M190 190 L204 226 L240 240 L204 254 L190 290 L176 254 L140 240 L176 226 Z"/>
    <path d="M846 150 L855 174 L879 183 L855 192 L846 216 L837 192 L813 183 L837 174 Z"/>
  </g>
  <circle cx="860" cy="330" r="12" fill="#9ad7c9"/>
  <circle cx="160" cy="470" r="10" fill="#b9a8f0"/>

  </svg>
